<?xml version="1.0" encoding="UTF-8"?>
<svg version="1.1" xmlns="http://www.w3.org/2000/svg" width="225" height="225">
<path d="M0 0 C1.45290688 -0.01506844 1.45290688 -0.01506844 2.93516541 -0.03044128 C3.99649689 -0.03627228 5.05782837 -0.04210327 6.15132141 -0.04811096 C7.27032333 -0.05789474 8.38932526 -0.06767853 9.54223633 -0.07775879 C13.25347196 -0.107726 16.96467151 -0.12910232 20.67597961 -0.14796448 C21.94302042 -0.1545363 23.21006123 -0.16110813 24.51549721 -0.1678791 C29.84189711 -0.19376824 35.16828265 -0.21725625 40.49472332 -0.23237514 C48.11549508 -0.25426329 55.73556068 -0.2961988 63.35605019 -0.36581272 C69.36870799 -0.41886384 75.38104184 -0.43886944 81.39394569 -0.44757271 C83.9468159 -0.45613318 86.49967332 -0.47496552 89.05238914 -0.50431633 C92.62889326 -0.54322339 96.20356218 -0.54426523 99.78022766 -0.53639221 C100.83143799 -0.55639282 101.88264832 -0.57639343 102.9657135 -0.59700012 C110.12757657 -0.52635728 114.13914235 1.17993418 119.28926086 6.16062927 C125.79456013 12.85179423 128.89212794 22.39922746 132.07832336 30.98484802 C134.6466012 37.72036377 137.69256428 44.21968489 140.77168274 50.73094177 C142.04922026 53.44744858 143.2680607 56.09648979 144.21113586 58.94969177 C145.62633096 61.85186723 147.11225003 62.48934059 149.97676086 63.91062927 C157.63827088 68.23960386 161.9614322 74.09304598 164.65319824 82.38415527 C165.91933269 87.91095286 165.65122232 93.52362458 165.58222961 99.16453552 C165.57798477 100.48356369 165.57373993 101.80259186 165.56936646 103.16159058 C165.55800765 106.63868312 165.52862017 110.11538923 165.49525452 113.59233093 C165.46435806 117.15215327 165.45081966 120.71203912 165.43574524 124.2719574 C165.4037398 131.23502108 165.35104736 138.19776674 165.28926086 145.16062927 C159.34926086 145.16062927 153.40926086 145.16062927 147.28926086 145.16062927 C147.26347961 146.65594177 147.23769836 148.15125427 147.21113586 149.69187927 C147.15482611 151.68149064 147.09747944 153.67107285 147.03926086 155.66062927 C147.02508118 156.6428949 147.01090149 157.62516052 146.99629211 158.63719177 C146.76468586 165.58537938 145.78411321 171.57522797 140.77217102 176.71702576 C136.06990582 180.75600454 133.01749452 181.57924069 126.96113586 181.50047302 C122.63975526 180.95082374 119.36966398 179.22085508 116.28926086 176.16062927 C112.28926086 169.16062927 112.28926086 169.16062927 111.28926086 146.16062927 C53.37426086 145.66562927 53.37426086 145.66562927 -5.71073914 145.16062927 C-6.04073914 152.75062927 -6.37073914 160.34062927 -6.71073914 168.16062927 C-9.69953789 174.13822679 -11.94796918 177.83376701 -17.71073914 181.16062927 C-22.50609997 182.32461947 -26.65826573 182.21724798 -31.08573914 179.93797302 C-35.51589687 176.75379715 -38.95923168 173.41515163 -40.71073914 168.16062927 C-40.79283706 166.38749077 -40.81820208 164.61142152 -40.80839539 162.83641052 C-40.80517273 161.80838318 -40.80195007 160.78035583 -40.79862976 159.72117615 C-40.79025085 158.64932068 -40.78187195 157.57746521 -40.77323914 156.47312927 C-40.76872742 155.38967224 -40.7642157 154.30621521 -40.75956726 153.18992615 C-40.74777671 150.51347034 -40.72984122 147.83704289 -40.71073914 145.16062927 C-46.98073914 145.16062927 -53.25073914 145.16062927 -59.71073914 145.16062927 C-59.75614817 137.90147049 -59.79274549 130.64239095 -59.81436348 123.38311958 C-59.82474552 120.01137589 -59.83880097 116.63973544 -59.86161804 113.26805115 C-59.88602194 109.38065419 -59.89725796 105.49340166 -59.90605164 101.60594177 C-59.91637421 100.41074921 -59.92669678 99.21555664 -59.93733215 97.98414612 C-59.93858147 88.55258138 -59.80661077 79.78046881 -53.71073914 72.16062927 C-53.23120789 71.55090271 -52.75167664 70.94117615 -52.25761414 70.31297302 C-48.19963156 65.32247425 -45.16628293 63.23655324 -38.71073914 62.16062927 C-38.54058289 61.53156677 -38.37042664 60.90250427 -38.19511414 60.25437927 C-36.77159317 55.22662437 -35.1168569 50.69398776 -32.67558289 46.07859802 C-31.72855476 44.19604413 -30.98489331 42.3303073 -30.27323914 40.34812927 C-28.74433775 36.10210423 -26.85880209 32.05114443 -24.96464539 27.95750427 C-23.79223392 25.34240581 -22.73679624 22.71085509 -21.71073914 20.03562927 C-18.40853022 11.76037267 -15.54265971 5.80176739 -7.71073914 1.16062927 C-4.83366016 0.20160295 -2.99079127 0.02439851 0 0 Z M-1.71073914 14.16062927 C-7.2383084 24.94210293 -7.2383084 24.94210293 -11.71073914 36.16062927 C-12.43159957 37.86237248 -13.17638272 39.55418692 -13.94511414 41.23484802 C-14.35374695 42.14943787 -14.76237976 43.06402771 -15.18339539 44.0063324 C-16.04197491 45.91647491 -16.90931936 47.82269958 -17.78495789 49.7250824 C-18.18843445 50.63580505 -18.59191101 51.54652771 -19.00761414 52.48484802 C-19.38240906 53.31073425 -19.75720398 54.13662048 -20.14335632 54.98753357 C-20.33059265 55.70465515 -20.51782898 56.42177673 -20.71073914 57.16062927 C-20.05073914 58.15062927 -19.39073914 59.14062927 -18.71073914 60.16062927 C-16.10647897 60.60922865 -16.10647897 60.60922865 -13.00343323 60.52139282 C-11.18185196 60.52757881 -11.18185196 60.52757881 -9.32347107 60.53388977 C-7.97062463 60.52327167 -6.61778042 60.51236723 -5.26493835 60.50120544 C-3.84594236 60.50035959 -2.42694506 60.50083351 -1.00794983 60.50253296 C2.85142707 60.50339596 6.71052593 60.48572125 10.56983805 60.46481109 C14.60039274 60.4460948 18.63095336 60.44429784 22.6615448 60.44073486 C30.29722242 60.43139951 37.93277163 60.40676566 45.56839263 60.37668639 C54.25991213 60.34318866 62.95143766 60.32666804 71.64300561 60.31160009 C89.52516357 60.28021733 107.40720191 60.22742797 125.28926086 60.16062927 C125.28926086 56.05751446 124.60051154 53.92364635 123.10176086 50.16062927 C122.64414368 49.0082074 122.18652649 47.85578552 121.71504211 46.66844177 C121.2445343 45.51086365 120.77402649 44.35328552 120.28926086 43.16062927 C119.87031555 42.12680115 119.45137024 41.09297302 119.01972961 40.02781677 C115.41168344 31.25396481 111.53190819 22.64592391 107.28926086 14.16062927 C71.31926086 14.16062927 35.34926086 14.16062927 -1.71073914 14.16062927 Z M-33.70292664 82.80125427 C-36.85643431 86.01808539 -39.1485509 88.6543519 -39.27323914 93.28562927 C-38.33092725 99.77711113 -37.14812952 103.88493411 -31.89823914 108.00828552 C-27.57214392 110.28721068 -23.40264996 110.28319246 -18.71073914 109.16062927 C-14.29999 106.65549506 -11.48220208 103.64183812 -9.14823914 99.16062927 C-8.46746678 94.49247599 -8.48653614 91.11015486 -11.06230164 87.00828552 C-14.38630983 82.81153546 -17.34598997 80.0542804 -22.73808289 79.22312927 C-27.20307472 79.08166418 -30.23290126 79.94358631 -33.70292664 82.80125427 Z M115.28926086 86.16062927 C113.89060184 88.95794733 114.0438882 91.35347486 113.97676086 94.47312927 C113.93937805 95.60363708 113.90199524 96.7341449 113.86347961 97.89891052 C114.48381874 102.6510497 116.78883046 104.75320075 120.17988586 107.93406677 C124.53336455 110.46553401 129.46556477 110.0292642 134.28926086 109.16062927 C137.5963935 107.33582811 140.10756914 105.25086112 142.28926086 102.16062927 C143.51720761 97.78003274 143.50786324 93.67841162 143.28926086 89.16062927 C142.62926086 88.17062927 141.96926086 87.18062927 141.28926086 86.16062927 C140.62926086 86.16062927 139.96926086 86.16062927 139.28926086 86.16062927 C139.28926086 85.50062927 139.28926086 84.84062927 139.28926086 84.16062927 C138.62926086 84.16062927 137.96926086 84.16062927 137.28926086 84.16062927 C136.95926086 83.17062927 136.62926086 82.18062927 136.28926086 81.16062927 C134.21800468 80.35404721 134.21800468 80.35404721 131.78926086 79.97312927 C130.97457336 79.81457458 130.15988586 79.6560199 129.32051086 79.49266052 C123.45127562 78.5332663 119.37099849 82.4499587 115.28926086 86.16062927 Z " fill="#F7F8F6" transform="translate(59.71073913574219,21.839370727539063)"/>
<path d="M0 0 C0.66 0.33 1.32 0.66 2 1 C3.92587806 1.09380577 5.85507309 1.12190817 7.78323364 1.12025452 C9.01444946 1.12162918 10.24566528 1.12300385 11.51419067 1.12442017 C12.88592553 1.1208808 14.25766015 1.11724598 15.62939453 1.11352539 C17.06809487 1.11324344 18.50679535 1.11340141 19.94549561 1.1139679 C23.85848805 1.11425556 27.77145002 1.10836378 31.68443537 1.10139394 C35.77105716 1.09515531 39.8576796 1.0945562 43.94430542 1.09336853 C51.68617603 1.09025672 59.42803256 1.08204535 67.16989696 1.07201904 C75.98234931 1.06085325 84.79480233 1.05534628 93.60725999 1.05032361 C111.73818131 1.03986262 129.86908953 1.02226608 148 1 C148 1.66 148 2.32 148 3 C99.16 3 50.32 3 0 3 C0 2.01 0 1.02 0 0 Z " fill="#848584" transform="translate(39,80)"/>
<path d="M0 0 C0.66 0.66 1.32 1.32 2 2 C1.43410156 2.54269531 0.86820313 3.08539063 0.28515625 3.64453125 C-0.44832031 4.35996094 -1.18179687 5.07539062 -1.9375 5.8125 C-2.66839844 6.52019531 -3.39929688 7.22789063 -4.15234375 7.95703125 C-6.20834646 9.95536163 -6.20834646 9.95536163 -7 13 C-7.66 13 -8.32 13 -9 13 C-7.47987323 7.59510481 -3.72614782 4.01507372 0 0 Z " fill="#C3C3C3" transform="translate(12,87)"/>
<path d="M0 0 C0.66 0.33 1.32 0.66 2 1 C4.0374763 1.22858114 6.08040303 1.41024278 8.125 1.5625 C9.76855469 1.68818359 9.76855469 1.68818359 11.4453125 1.81640625 C12.28835937 1.87699219 13.13140625 1.93757813 14 2 C14 2.33 14 2.66 14 3 C9.38 3 4.76 3 0 3 C0 2.01 0 1.02 0 0 Z " fill="#6A6C6A" transform="translate(39,80)"/>
<path d="" fill="#000000" transform="translate(0,0)"/>
<path d="" fill="#000000" transform="translate(0,0)"/>
<path d="" fill="#000000" transform="translate(0,0)"/>
<path d="" fill="#000000" transform="translate(0,0)"/>
<path d="" fill="#000000" transform="translate(0,0)"/>
<path d="" fill="#000000" transform="translate(0,0)"/>
<path d="" fill="#000000" transform="translate(0,0)"/>
<path d="" fill="#000000" transform="translate(0,0)"/>
<path d="" fill="#000000" transform="translate(0,0)"/>
<path d="" fill="#000000" transform="translate(0,0)"/>
<path d="" fill="#000000" transform="translate(0,0)"/>
<path d="" fill="#000000" transform="translate(0,0)"/>
<path d="" fill="#000000" transform="translate(0,0)"/>
<path d="" fill="#000000" transform="translate(0,0)"/>
<path d="" fill="#000000" transform="translate(0,0)"/>
<path d="" fill="#000000" transform="translate(0,0)"/>
<path d="" fill="#000000" transform="translate(0,0)"/>
<path d="" fill="#000000" transform="translate(0,0)"/>
<path d="" fill="#000000" transform="translate(0,0)"/>
<path d="" fill="#000000" transform="translate(0,0)"/>
<path d="" fill="#000000" transform="translate(0,0)"/>
<path d="" fill="#000000" transform="translate(0,0)"/>
<path d="" fill="#000000" transform="translate(0,0)"/>
<path d="" fill="#FF0000" transform="translate(0,0)"/>
<path d="" fill="#000000" transform="translate(0,0)"/>
<path d="" fill="#000000" transform="translate(0,0)"/>
<path d="" fill="#000000" transform="translate(0,0)"/>
<path d="" fill="#000000" transform="translate(0,0)"/>
<path d="" fill="#000000" transform="translate(0,0)"/>
<path d="" fill="#000000" transform="translate(0,0)"/>
<path d="" fill="#000000" transform="translate(0,0)"/>
<path d="" fill="#000000" transform="translate(0,0)"/>
<path d="" fill="#000000" transform="translate(0,0)"/>
<path d="" fill="#000000" transform="translate(0,0)"/>
<path d="" fill="#000000" transform="translate(0,0)"/>
<path d="" fill="#000000" transform="translate(0,0)"/>
<path d="" fill="#000000" transform="translate(0,0)"/>
<path d="" fill="#000000" transform="translate(0,0)"/>
<path d="" fill="#000000" transform="translate(0,0)"/>
<path d="" fill="#FF0000" transform="translate(0,0)"/>
<path d="" fill="#000000" transform="translate(0,0)"/>
<path d="" fill="#000000" transform="translate(0,0)"/>
<path d="" fill="#000000" transform="translate(0,0)"/>
<path d="" fill="#000000" transform="translate(0,0)"/>
<path d="" fill="#000000" transform="translate(0,0)"/>
<path d="" fill="#000000" transform="translate(0,0)"/>
<path d="" fill="#000000" transform="translate(0,0)"/>
<path d="" fill="#000000" transform="translate(0,0)"/>
<path d="" fill="#000000" transform="translate(0,0)"/>
<path d="" fill="#000000" transform="translate(0,0)"/>
<path d="" fill="#000000" transform="translate(0,0)"/>
<path d="" fill="#000000" transform="translate(0,0)"/>
<path d="" fill="#000000" transform="translate(0,0)"/>
<path d="" fill="#000000" transform="translate(0,0)"/>
<path d="" fill="#000000" transform="translate(0,0)"/>
<path d="" fill="#000000" transform="translate(0,0)"/>
<path d="" fill="#000000" transform="translate(0,0)"/>
<path d="" fill="#000000" transform="translate(0,0)"/>
<path d="" fill="#000000" transform="translate(0,0)"/>
<path d="" fill="#000000" transform="translate(0,0)"/>
</svg>
